# xmcd
#
# Track frame offsets:
# 150
# 13313
# 24338
# 37913
# 54676
# 68139
# 84489
# 99030
# 113510
# 133548
# 151848
# 167486
# 182955
# 199530
# 219593
# 233420
# 252320
# 273658
#
# Disc length: 3901 seconds
#
#
# Revision: 0
# Processed by: cddbd v1.5.2PL0 Copyright (c) Steve Scherf et al.
# Submitted via: FreeRIP 2.96 
#
DISCID=e30f3b12
DTITLE=chicken rag - stompin at the barn dance
DYEAR=2009
DGENRE=rag-o-billy music
TTITLE0=why dont you leave me alone
TTITLE1=country cattin
TTITLE2=all of me
TTITLE3=backdoor blues
TTITLE4=destination love
TTITLE5=I am rollin on
TTITLE6=home in san antone
TTITLE7=folsom prison blues
TTITLE8=things have gone to pieces
TTITLE9=Im gonna sleep with one eye open
TTITLE10=hey good lookin
TTITLE11=pokarekare ana
TTITLE12=bubbles in my beer
TTITLE13=sunday mornin comin down
TTITLE14=miss molly
TTITLE15=am I wrong
TTITLE16=the new hula blues
TTITLE17=stompin at the savoy
EXTD=
EXTT0=
EXTT1=
EXTT2=
EXTT3=
EXTT4=
EXTT5=
EXTT6=
EXTT7=
EXTT8=
EXTT9=
EXTT10=
EXTT11=
EXTT12=
EXTT13=
EXTT14=
EXTT15=
EXTT16=
EXTT17=
PLAYORDER=
